<?xml version="1.0" encoding="utf-8"?>
<!-- Generator: Adobe Illustrator 14.0.0, SVG Export Plug-In . SVG Version: 6.00 Build 43363)  -->
<!DOCTYPE svg PUBLIC "-//W3C//DTD SVG 1.1//EN" "http://www.w3.org/Graphics/SVG/1.1/DTD/svg11.dtd">
<svg version="1.1" id="Layer_1" xmlns="http://www.w3.org/2000/svg" xmlns:xlink="http://www.w3.org/1999/xlink" x="0px" y="0px"
	 width="1000px" height="272px" viewBox="0 0 1000 272" enable-background="new 0 0 1000 272" xml:space="preserve">
<text transform="matrix(1 0 0 1 92 128)" font-family="'ArialMT'" font-size="12">         </text>
<text transform="matrix(1 0 0 1 92 128)" font-family="'NokiaPureText-Regular'" font-size="24">FooBar</text>
<text transform="matrix(1 0 0 1 167.4312 128)" font-family="'ArialMT'" font-size="12">         </text>
<text transform="matrix(1 0 0 1 92 156.7998)" font-family="'NokiaPureText-Regular'" font-size="24">With new line</text>
<text transform="matrix(1 0 0 1 233.1899 156.7998)" font-family="'ArialMT'" font-size="12">     </text>
<text transform="matrix(1 0 0 1 768.6826 128)" font-family="'ArialMT'" font-size="12">         </text>
<text transform="matrix(1 0 0 1 768.6826 128)" font-family="'NokiaPureText-Light'" font-size="24">FooBar</text>
<text transform="matrix(1 0 0 1 843.7305 128)" font-family="'ArialMT'" font-size="12">         </text>
<text transform="matrix(1 0 0 1 768.6826 156.7998)" font-family="'NokiaPureText-Light'" font-size="24">With new line</text>
<text transform="matrix(1 0 0 1 908 156.7998)" font-family="'ArialMT'" font-size="12">     </text>
<text transform="matrix(1 0 0 1 427.5332 128)" font-family="'ArialMT'" font-size="12">         </text>
<text transform="matrix(1 0 0 1 427.5332 128)" font-family="'NokiaPureText-Bold'" font-size="24">FooBar</text>
<text transform="matrix(1 0 0 1 505.2451 128)" font-family="'ArialMT'" font-size="12">         </text>
<text transform="matrix(1 0 0 1 427.5332 156.7998)" font-family="'NokiaPureText-Bold'" font-size="24">With new line</text>
<text transform="matrix(1 0 0 1 573.4033 156.7998)" font-family="'ArialMT'" font-size="12">     </text>
<line fill="none" stroke="#000000" x1="244.5" y1="48.5" x2="254.5" y2="48.5"/>
<path fill="none" stroke="#000000" d="M276.5,180.5c0-80.146,65.301-145,146-145"/>
</svg>
